<svg width="1440" height="627" viewBox="0 0 1440 627" fill="none" xmlns="http://www.w3.org/2000/svg">
<path fill-rule="evenodd" clip-rule="evenodd" d="M0 598.362L48 609.443C96 620.524 192 642.685 288 609.443C384 576.201 480 487.554 576 487.554C672 487.554 768 576.201 864 554.039C960 531.878 1056 398.908 1152 376.747C1248 354.585 1344 443.231 1392 487.554L1440 531.878V0H1392C1344 0 1248 0 1152 0C1056 0 960 0 864 0C768 0 672 0 576 0C480 0 384 0 288 0C192 0 96 0 48 0H0V598.362Z" fill="#F5F5F5"/>
</svg>
