<svg width="26" height="40" viewBox="0 0 26 40" fill="none" xmlns="http://www.w3.org/2000/svg">
<g clip-path="url(#clip0_862_6045)">
<path d="M24.2241 29.4265L22.4145 35.138H3.58576L1.77612 29.4265H24.2241ZM24.5777 27.79H1.4226C0.463067 27.79 -0.218706 28.6901 0.0674706 29.582L2.03704 35.8007C2.2138 36.3817 2.76932 36.7745 3.39217 36.7745H22.6165C23.2393 36.7745 23.7949 36.3817 23.9716 35.8007L25.9412 29.582C26.2189 28.6901 25.5372 27.79 24.5777 27.79Z" fill="white"/>
<path d="M3.76233 28.4852C3.76233 25.8177 5.99283 23.6494 8.73677 23.6494H17.2632C20.0071 23.6494 22.2376 25.8177 22.2376 28.4852" stroke="white" stroke-width="1.67742" stroke-miterlimit="10"/>
<path d="M12.6425 32.2812H13.358" stroke="white" stroke-width="1.67742" stroke-miterlimit="10" stroke-linecap="round" stroke-linejoin="round"/>
<path d="M17.179 23.6493V22.1682C17.179 21.4482 17.4484 20.7609 17.9113 20.1962C18.9382 18.9525 19.6452 17.5697 19.8977 15.4995C19.9398 15.1476 20.2428 14.8694 20.6047 14.8694C21.0172 14.8694 21.3454 14.5422 21.3454 14.1412V13.4948C21.3454 13.0938 21.0087 12.7665 20.5963 12.7665H20.5878C20.2176 12.7665 19.9229 12.4965 19.8809 12.1446C19.3337 7.54607 16.4552 4.04395 13.0042 4.04395C9.54481 4.04395 6.67464 7.54607 6.10229 12.1446C6.0602 12.4965 5.75719 12.7747 5.39526 12.7747H5.37843C4.90708 12.7747 4.5199 13.1511 4.5199 13.6094V14.0266C4.5199 14.4849 4.90708 14.8612 5.37843 14.8612C5.74877 14.8612 6.04337 15.1313 6.08545 15.4913C6.33796 17.5615 7.0534 18.9525 8.07186 20.1962C8.53475 20.7609 8.80414 21.4564 8.80414 22.1764V23.6493" stroke="white" stroke-width="1.67742" stroke-miterlimit="10"/>
<path d="M5.46265 12.7755H11.6912C12.9538 12.7755 14.1153 11.8836 14.1994 10.6644C14.2247 10.2716 14.191 9.4697 14.3257 9.10149C14.4015 8.89692 14.7381 8.96238 14.8055 9.17513L15.5125 12.0063C15.664 12.4727 16.1101 12.7837 16.6067 12.7837H20.428" stroke="white" stroke-width="1.67742" stroke-miterlimit="10"/>
</g>
<defs>
<clipPath id="clip0_862_6045">
<rect width="26" height="40" fill="white"/>
</clipPath>
</defs>
</svg>
