<svg width="18" height="15" viewBox="0 0 18 15" fill="none" xmlns="http://www.w3.org/2000/svg">
<path d="M17.999 2.32526C17.325 2.60973 16.61 2.79646 15.878 2.87923C16.6405 2.44382 17.226 1.75434 17.5017 0.932829C16.7768 1.34264 15.9837 1.63137 15.1567 1.78656C14.483 1.10284 13.5234 0.675537 12.4611 0.675537C10.4217 0.675537 8.76812 2.25077 8.76812 4.19362C8.76812 4.4694 8.80081 4.73788 8.86374 4.99544C5.7946 4.84867 3.07351 3.44807 1.25206 1.31954C0.93425 1.83914 0.752141 2.44355 0.752141 3.08822C0.752141 4.30884 1.40415 5.38563 2.39499 6.01657C1.80855 5.99907 1.23501 5.84817 0.722258 5.57647C0.722047 5.59121 0.722047 5.60594 0.722047 5.62075C0.722047 7.32533 1.99498 8.7473 3.68431 9.07051C3.14051 9.2114 2.57009 9.23202 2.01664 9.13079C2.48654 10.5285 3.85039 11.5456 5.46631 11.5741C4.20245 12.5176 2.61008 13.0801 0.879969 13.0801C0.581844 13.0801 0.287938 13.0634 -0.000976563 13.031C1.6333 14.0292 3.57441 14.6116 5.65988 14.6116C12.4526 14.6116 16.167 9.2507 16.167 4.60163C16.167 4.44904 16.1634 4.29731 16.1563 4.14646C16.8792 3.64855 17.5033 3.03183 17.999 2.32526Z" fill="#262626"/>
</svg>
