<svg width="49" height="58" viewBox="0 0 49 58" fill="none" xmlns="http://www.w3.org/2000/svg">
<path d="M17.338 2.16757C17.0895 1.75341 16.642 1.5 16.159 1.5H2.86601C1.79723 1.5 1.13708 2.66596 1.68696 3.58243L16.537 28.3324C16.7855 28.7466 17.233 29 17.716 29H31.009C32.0778 29 32.7379 27.834 32.188 26.9176L17.338 2.16757Z" fill="#C52229"/>
<path fill-rule="evenodd" clip-rule="evenodd" d="M16.159 0.125H2.86602C0.728461 0.125 -0.59185 2.45692 0.507916 4.28986L15.3579 29.0399C15.8549 29.8682 16.75 30.375 17.716 30.375H31.009C33.1466 30.375 34.4669 28.0431 33.3671 26.2101L18.5171 1.46014C18.0201 0.631824 17.125 0.125 16.159 0.125ZM16.159 1.5C16.642 1.5 17.0896 1.75341 17.3381 2.16757L32.1881 26.9176C32.7379 27.834 32.0778 29 31.009 29H17.716C17.233 29 16.7855 28.7466 16.537 28.3324L1.68697 3.58243C1.13709 2.66596 1.79724 1.5 2.86602 1.5H16.159Z" fill="#9B0F15"/>
<path d="M31.662 2.16757C31.9105 1.75341 32.358 1.5 32.841 1.5H46.134C47.2028 1.5 47.8629 2.66596 47.313 3.58243L32.463 28.3324C32.2146 28.7466 31.767 29 31.284 29H17.991C16.9222 29 16.2621 27.834 16.812 26.9176L31.662 2.16757Z" fill="#F1333B"/>
<path fill-rule="evenodd" clip-rule="evenodd" d="M32.841 0.125H46.134C48.2715 0.125 49.5918 2.45692 48.4921 4.28986L33.6421 29.0399C33.1451 29.8682 32.25 30.375 31.284 30.375H17.991C15.8534 30.375 14.5331 28.0431 15.6329 26.2101L30.4829 1.46014C30.9799 0.631824 31.875 0.125 32.841 0.125ZM32.841 1.5C32.358 1.5 31.9104 1.75341 31.6619 2.16757L16.8119 26.9176C16.2621 27.834 16.9222 29 17.991 29H31.284C31.767 29 32.2145 28.7466 32.463 28.3324L47.313 3.58243C47.8629 2.66596 47.2028 1.5 46.134 1.5H32.841Z" fill="#9B0F15"/>
<path fill-rule="evenodd" clip-rule="evenodd" d="M33.0952 2.28057C33.4236 2.47123 33.5352 2.89197 33.3445 3.22033L27.157 13.8766C26.9664 14.2049 26.5456 14.3166 26.2173 14.1259C25.8889 13.9352 25.7773 13.5145 25.9679 13.1861L32.1554 2.5299C32.3461 2.20154 32.7668 2.08991 33.0952 2.28057Z" fill="#FE666D"/>
<path fill-rule="evenodd" clip-rule="evenodd" d="M2.84229 2.28057C2.51393 2.47123 2.40231 2.89197 2.59297 3.22033L8.78047 13.8766C8.97113 14.2049 9.39187 14.3166 9.72023 14.1259C10.0486 13.9352 10.1602 13.5145 9.96955 13.1861L3.78205 2.5299C3.59139 2.20154 3.17065 2.08991 2.84229 2.28057Z" fill="#DF3840"/>
<path d="M15.9063 3.75586C15.9063 4.24234 15.5215 4.63672 15.0469 4.63672C14.5723 4.63672 14.1875 4.24234 14.1875 3.75586C14.1875 3.26937 14.5723 2.875 15.0469 2.875C15.5215 2.875 15.9063 3.26937 15.9063 3.75586Z" fill="#AA161D"/>
<path d="M12.888 3.9707C12.888 4.57584 12.4094 5.06641 11.819 5.06641C11.2286 5.06641 10.75 4.57584 10.75 3.9707C10.75 3.36556 11.2286 2.875 11.819 2.875C12.4094 2.875 12.888 3.36556 12.888 3.9707Z" fill="#AA161D"/>
<path d="M15.5625 7.10742C15.5625 7.71256 15.0839 8.20312 14.4935 8.20312C13.9032 8.20312 13.4246 7.71256 13.4246 7.10742C13.4246 6.50228 13.9032 6.01172 14.4935 6.01172C15.0839 6.01172 15.5625 6.50228 15.5625 7.10742Z" fill="#AA161D"/>
<path d="M18.0065 5.61426C18.0065 5.91683 17.7672 6.16211 17.472 6.16211C17.1768 6.16211 16.9375 5.91683 16.9375 5.61426C16.9375 5.31169 17.1768 5.06641 17.472 5.06641C17.7672 5.06641 18.0065 5.31169 18.0065 5.61426Z" fill="#AA161D"/>
<path d="M12.3535 6.55957C12.3535 6.86214 12.1142 7.10742 11.819 7.10742C11.5238 7.10742 11.2845 6.86214 11.2845 6.55957C11.2845 6.257 11.5238 6.01172 11.819 6.01172C12.1142 6.01172 12.3535 6.257 12.3535 6.55957Z" fill="#AA161D"/>
<path d="M9.37501 3.20801C9.37501 3.51058 9.13571 3.75586 8.84052 3.75586C8.54533 3.75586 8.30603 3.51058 8.30603 3.20801C8.30603 2.90544 8.54533 2.66016 8.84052 2.66016C9.13571 2.66016 9.37501 2.90544 9.37501 3.20801Z" fill="#AA161D"/>
<path d="M17.472 9.43848C17.472 9.74105 17.2327 9.98633 16.9375 9.98633C16.6423 9.98633 16.403 9.74105 16.403 9.43848C16.403 9.13591 16.6423 8.89062 16.9375 8.89062C17.2327 8.89062 17.472 9.13591 17.472 9.43848Z" fill="#AA161D"/>
<path d="M14.722 9.98535C14.722 10.2879 14.4827 10.5332 14.1875 10.5332C13.8923 10.5332 13.653 10.2879 13.653 9.98535C13.653 9.68278 13.8923 9.4375 14.1875 9.4375C14.4827 9.4375 14.722 9.68278 14.722 9.98535Z" fill="#AA161D"/>
<path d="M20.0522 8.00098C20.0522 8.49339 19.6628 8.89258 19.1824 8.89258C18.7019 8.89258 18.3125 8.49339 18.3125 8.00098C18.3125 7.50856 18.7019 7.10938 19.1824 7.10938C19.6628 7.10938 20.0522 7.50856 20.0522 8.00098Z" fill="#AA161D"/>
<path d="M21.1862 10.5322C21.1862 10.8348 20.9469 11.0801 20.6517 11.0801C20.3565 11.0801 20.1172 10.8348 20.1172 10.5322C20.1172 10.2297 20.3565 9.98438 20.6517 9.98438C20.9469 9.98438 21.1862 10.2297 21.1862 10.5322Z" fill="#AA161D"/>
<path d="M43.0625 37.9375C43.0625 48.1893 34.7518 56.5 24.5 56.5C14.2482 56.5 5.9375 48.1893 5.9375 37.9375C5.9375 27.6857 14.2482 19.375 24.5 19.375C34.7518 19.375 43.0625 27.6857 43.0625 37.9375Z" fill="#FFBB0D"/>
<path fill-rule="evenodd" clip-rule="evenodd" d="M44.4375 37.9375C44.4375 48.9487 35.5112 57.875 24.5 57.875C13.4888 57.875 4.5625 48.9487 4.5625 37.9375C4.5625 26.9263 13.4888 18 24.5 18C35.5112 18 44.4375 26.9263 44.4375 37.9375ZM24.5 56.5C34.7518 56.5 43.0625 48.1893 43.0625 37.9375C43.0625 27.6857 34.7518 19.375 24.5 19.375C14.2482 19.375 5.9375 27.6857 5.9375 37.9375C5.9375 48.1893 14.2482 56.5 24.5 56.5Z" fill="#E89B05"/>
<path fill-rule="evenodd" clip-rule="evenodd" d="M7.3125 38.625C6.9328 38.625 6.625 38.3172 6.625 37.9375C6.625 28.0654 14.6279 20.0625 24.5 20.0625C24.8797 20.0625 25.1875 20.3703 25.1875 20.75C25.1875 21.1297 24.8797 21.4375 24.5 21.4375C15.3873 21.4375 8 28.8248 8 37.9375C8 38.3172 7.6922 38.625 7.3125 38.625Z" fill="#E8AA0A"/>
<path fill-rule="evenodd" clip-rule="evenodd" d="M41.6875 37.25C42.0672 37.25 42.375 37.5578 42.375 37.9375C42.375 47.8096 34.3721 55.8125 24.5 55.8125C24.1203 55.8125 23.8125 55.5047 23.8125 55.125C23.8125 54.7453 24.1203 54.4375 24.5 54.4375C33.6127 54.4375 41 47.0502 41 37.9375C41 37.5578 41.3078 37.25 41.6875 37.25Z" fill="#E8AA0A"/>
<path d="M38.25 37.9375C38.25 45.5314 32.0939 51.6875 24.5 51.6875C16.9061 51.6875 10.75 45.5314 10.75 37.9375C10.75 30.3436 16.9061 24.1875 24.5 24.1875C32.0939 24.1875 38.25 30.3436 38.25 37.9375Z" fill="#FFDD28"/>
<path fill-rule="evenodd" clip-rule="evenodd" d="M39.625 37.9375C39.625 46.2908 32.8533 53.0625 24.5 53.0625C16.1467 53.0625 9.375 46.2908 9.375 37.9375C9.375 29.5842 16.1467 22.8125 24.5 22.8125C32.8533 22.8125 39.625 29.5842 39.625 37.9375ZM24.5 51.6875C32.0939 51.6875 38.25 45.5314 38.25 37.9375C38.25 30.3436 32.0939 24.1875 24.5 24.1875C16.9061 24.1875 10.75 30.3436 10.75 37.9375C10.75 45.5314 16.9061 51.6875 24.5 51.6875Z" fill="#E89B05"/>
<path fill-rule="evenodd" clip-rule="evenodd" d="M24.5 49.625C30.9548 49.625 36.1875 44.3923 36.1875 37.9375C36.1875 37.5578 36.4953 37.25 36.875 37.25C37.2547 37.25 37.5625 37.5578 37.5625 37.9375C37.5625 45.1517 31.7142 51 24.5 51C24.1203 51 23.8125 50.6922 23.8125 50.3125C23.8125 49.9328 24.1203 49.625 24.5 49.625Z" fill="#ECC704"/>
<path fill-rule="evenodd" clip-rule="evenodd" d="M24.5 26.25C18.0452 26.25 12.8125 31.4827 12.8125 37.9375C12.8125 38.3172 12.5047 38.625 12.125 38.625C11.7453 38.625 11.4375 38.3172 11.4375 37.9375C11.4375 30.7233 17.2858 24.875 24.5 24.875C24.8797 24.875 25.1875 25.1828 25.1875 25.5625C25.1875 25.9422 24.8797 26.25 24.5 26.25Z" fill="#FFEF9C"/>
</svg>
