<svg width="101" height="69" viewBox="0 0 101 69" fill="none" xmlns="http://www.w3.org/2000/svg">
<path d="M12.5202 58.1852L0.661123 8.09713C0.163696 5.99969 0.832213 3.74068 2.47024 2.43849C3.27634 1.7816 4.28192 1.41847 5.32173 1.40879L38.1456 0.375914C39.0086 0.358397 39.858 0.593076 40.5896 1.05118C41.3213 1.50928 41.9033 2.1709 42.2644 2.95493L45.5342 9.74149L87.1882 9.78268C90.2488 9.78268 93.4615 14.0282 93.0971 17.5926L96.6615 59.3068C96.145 64.3381 91.703 68.1243 87.3846 68.1243H21.5721C17.0604 68.1369 13.2426 64.1987 12.5202 58.1852Z" fill="#9DE6F5"/>
<g opacity="0.3">
<path d="M12.5202 58.1852L0.661123 8.09713C0.163696 5.99969 0.832213 3.74068 2.47024 2.43849C3.27634 1.7816 4.28192 1.41847 5.32173 1.40879L38.1456 0.375914C39.0086 0.358397 39.858 0.593077 40.5896 1.05118C41.3213 1.50928 41.9033 2.1709 42.2644 2.95493L45.5342 9.74149L87.1882 9.78268C90.2488 9.78268 93.4615 14.0282 93.0971 17.5926L96.6615 59.3068C96.145 64.3381 91.703 68.1243 87.3846 68.1243H21.5721C17.0604 68.1369 13.2426 64.1987 12.5202 58.1852Z" fill="#525252"/>
</g>
<path d="M13.0882 59.6421L9.95154 4.15201L87.6389 2.97656L90.3637 58.5902L13.0882 59.6421Z" fill="#E0E0E0"/>
<path d="M12.7322 6.42799C12.7242 6.52861 12.6871 6.62473 12.6253 6.70459C12.5636 6.78445 12.4799 6.8446 12.3846 6.87769C12.2892 6.91078 12.1863 6.91537 12.0883 6.89091C11.9904 6.86645 11.9017 6.81399 11.8331 6.73995C11.7645 6.6659 11.7189 6.57348 11.702 6.47396C11.6851 6.37445 11.6975 6.27216 11.7377 6.17959C11.778 6.08702 11.8443 6.00818 11.9287 5.9527C12.013 5.89722 12.1117 5.86751 12.2126 5.86719C12.2836 5.86963 12.3535 5.88612 12.4181 5.91568C12.4827 5.94524 12.5409 5.98728 12.5892 6.03941C12.6375 6.09154 12.675 6.15272 12.6995 6.21941C12.7241 6.2861 12.7352 6.35698 12.7322 6.42799Z" fill="#EBEBEB"/>
<path d="M14.7481 6.42799C14.7401 6.52861 14.703 6.62473 14.6413 6.70459C14.5795 6.78445 14.4959 6.8446 14.4005 6.87769C14.3051 6.91078 14.2022 6.91537 14.1043 6.89091C14.0063 6.86645 13.9176 6.81399 13.849 6.73995C13.7804 6.6659 13.7349 6.57348 13.7179 6.47396C13.701 6.37445 13.7134 6.27216 13.7537 6.17959C13.7939 6.08702 13.8603 6.00818 13.9446 5.9527C14.0289 5.89722 14.1276 5.86751 14.2285 5.86719C14.2996 5.86963 14.3694 5.88612 14.434 5.91568C14.4987 5.94524 14.5568 5.98728 14.6051 6.03941C14.6534 6.09154 14.6909 6.15272 14.7155 6.21941C14.74 6.2861 14.7511 6.35698 14.7481 6.42799Z" fill="#EBEBEB"/>
<path d="M16.7656 6.42799C16.7576 6.52861 16.7205 6.62473 16.6587 6.70459C16.597 6.78445 16.5133 6.8446 16.418 6.87769C16.3226 6.91078 16.2197 6.91537 16.1217 6.89091C16.0238 6.86645 15.9351 6.81399 15.8665 6.73995C15.7979 6.6659 15.7523 6.57348 15.7354 6.47396C15.7185 6.37445 15.7309 6.27216 15.7711 6.17959C15.8114 6.08702 15.8777 6.00818 15.9621 5.9527C16.0464 5.89722 16.1451 5.86751 16.246 5.86719C16.3892 5.87296 16.5242 5.93521 16.6216 6.04031C16.719 6.14541 16.7707 6.2848 16.7656 6.42799Z" fill="#EBEBEB"/>
<path d="M40.5785 6.42773L45.2644 34.2773L8.39458 39.8156L3.70862 11.966L40.5785 6.42773Z" fill="#EBEBEB"/>
<path d="M40.5815 6.42773L40.404 6.45942L39.8876 6.54179L37.8852 6.85862L30.3414 8.01506L3.72746 12.0579L3.80667 11.9533C5.20707 20.2416 6.80708 29.7435 8.5053 39.7997L8.38174 39.7142L45.2547 34.1918L45.1787 34.29C43.7878 25.9003 42.644 18.949 41.8266 14.0856C41.4274 11.6523 41.1137 9.74497 40.8983 8.43645C40.7937 7.78695 40.7145 7.28951 40.6575 6.94734C40.6005 6.60516 40.5815 6.42773 40.5815 6.42773C40.5815 6.42773 40.6163 6.59249 40.6765 6.92516C40.7367 7.25784 40.8223 7.75526 40.9331 8.39526C41.1581 9.69745 41.4844 11.5984 41.9026 14.019C42.7359 18.8919 43.924 25.8591 45.3561 34.2647L45.372 34.347H45.2833L8.41025 39.917L8.3057 39.9328L8.28669 39.8314C6.59797 29.7751 5.0043 20.2733 3.6134 11.9818V11.8931H3.70845L30.4016 7.93269L37.9327 6.82378L39.9193 6.53863L40.4262 6.46575L40.5815 6.42773Z" fill="#263238"/>
<path d="M9.37082 37.8697L43.6521 32.7212L39.5555 8.37891L5.27417 13.5274L9.37082 37.8697Z" fill="#455A64"/>
<g opacity="0.3">
<path d="M9.36993 37.8698L18.7989 20.9414L27.8064 29.2931L31.9855 23.4761L43.6512 32.7212L9.36993 37.8698Z" fill="black"/>
</g>
<g opacity="0.3">
<path d="M29.0522 17.5014C29.1011 17.8452 29.0808 18.1953 28.9925 18.5312C28.9043 18.8671 28.7498 19.1819 28.5382 19.4573C28.3266 19.7326 28.0621 19.9629 27.7603 20.1347C27.4584 20.3064 27.1253 20.4162 26.7805 20.4574C26.0827 20.5769 25.3658 20.4197 24.7819 20.0192C24.1981 19.6188 23.7932 19.0065 23.6534 18.3125C23.6041 17.9688 23.6239 17.6188 23.7118 17.283C23.7997 16.9471 23.9539 16.6322 24.1652 16.3568C24.3766 16.0814 24.6409 15.851 24.9425 15.6792C25.2442 15.5074 25.5772 15.3977 25.9219 15.3564C26.6203 15.2353 27.3385 15.3917 27.9232 15.7924C28.508 16.1931 28.9131 16.8063 29.0522 17.5014Z" fill="black"/>
</g>
<path d="M15.3274 62.2746L14.2787 8.28316L93.734 8.11523L93.4077 61.4699L15.3274 62.2746Z" fill="#EBEBEB"/>
<path d="M18.8864 10.3967C18.8784 10.4974 18.8413 10.5935 18.7795 10.6733C18.7178 10.7532 18.6341 10.8134 18.5387 10.8464C18.4434 10.8795 18.3404 10.8841 18.2425 10.8597C18.1446 10.8352 18.0559 10.7827 17.9873 10.7087C17.9187 10.6347 17.8731 10.5422 17.8562 10.4427C17.8392 10.3432 17.8517 10.2409 17.8919 10.1483C17.9322 10.0558 17.9985 9.97693 18.0828 9.92145C18.1672 9.86597 18.2658 9.83626 18.3668 9.83594C18.5099 9.84171 18.645 9.90396 18.7424 10.0091C18.8398 10.1142 18.8915 10.2536 18.8864 10.3967Z" fill="#E0E0E0"/>
<path d="M20.7457 10.3967C20.7377 10.4975 20.7005 10.5937 20.6386 10.6737C20.5767 10.7536 20.4929 10.8137 20.3973 10.8467C20.3018 10.8797 20.1987 10.8841 20.1007 10.8594C20.0027 10.8347 19.914 10.7819 19.8455 10.7075C19.777 10.6332 19.7317 10.5405 19.7152 10.4408C19.6986 10.3411 19.7115 10.2387 19.7522 10.1462C19.7929 10.0537 19.8597 9.97504 19.9445 9.91993C20.0292 9.86483 20.1282 9.83564 20.2293 9.83594C20.3 9.83879 20.3695 9.85557 20.4338 9.88531C20.498 9.91505 20.5558 9.95717 20.6038 10.0093C20.6517 10.0613 20.689 10.1224 20.7133 10.1889C20.7377 10.2554 20.7487 10.326 20.7457 10.3967Z" fill="#E0E0E0"/>
<path d="M16.9093 10.3967C16.9013 10.4974 16.8641 10.5935 16.8024 10.6733C16.7407 10.7532 16.657 10.8134 16.5616 10.8464C16.4663 10.8795 16.3633 10.8841 16.2654 10.8597C16.1675 10.8352 16.0788 10.7827 16.0102 10.7087C15.9416 10.6347 15.896 10.5422 15.8791 10.4427C15.8621 10.3432 15.8746 10.2409 15.9148 10.1483C15.9551 10.0558 16.0214 9.97693 16.1057 9.92145C16.1901 9.86597 16.2887 9.83626 16.3897 9.83594C16.5328 9.84171 16.6679 9.90396 16.7653 10.0091C16.8626 10.1142 16.9144 10.2536 16.9093 10.3967Z" fill="#E0E0E0"/>
<path d="M17.1742 63.5942V12.2578L96.3032 12.0898L92.0545 64.6968L17.1742 63.5942Z" fill="#FAFAFA"/>
<path d="M13.3344 57.9095L18.0679 19.3351C18.4354 16.3189 20.5836 14.082 23.1151 14.082H95.3941C98.4516 14.082 100.825 17.3042 100.463 20.9636L96.6615 59.0755C95.5526 66.9963 92.5078 68.1369 88.1894 68.1369H20.6469C16.1289 68.1369 11.7503 67.0026 13.3344 57.9095Z" fill="#F4B557"/>
</svg>
