<svg width="80" height="80" viewBox="0 0 80 80" fill="none" xmlns="http://www.w3.org/2000/svg">
<rect width="80" height="80" rx="40" fill="white" fill-opacity="0.1"/>
<g clip-path="url(#clip0_862_6044)">
<path d="M51.2241 49.4265L49.4145 55.138H30.5858L28.7761 49.4265H51.2241ZM51.5777 47.79H28.4226C27.4631 47.79 26.7813 48.6901 27.0675 49.582L29.037 55.8007C29.2138 56.3817 29.7693 56.7745 30.3922 56.7745H49.6165C50.2393 56.7745 50.7949 56.3817 50.9716 55.8007L52.9412 49.582C53.2189 48.6901 52.5372 47.79 51.5777 47.79Z" fill="white"/>
<path d="M30.7623 48.4852C30.7623 45.8177 32.9928 43.6494 35.7368 43.6494H44.2632C47.0071 43.6494 49.2376 45.8177 49.2376 48.4852" stroke="white" stroke-width="1.67742" stroke-miterlimit="10"/>
<path d="M39.6425 52.2812H40.358" stroke="white" stroke-width="1.67742" stroke-miterlimit="10" stroke-linecap="round" stroke-linejoin="round"/>
<path d="M44.179 43.6493V42.1682C44.179 41.4482 44.4484 40.7609 44.9113 40.1962C45.9382 38.9525 46.6452 37.5697 46.8977 35.4995C46.9398 35.1476 47.2428 34.8694 47.6047 34.8694C48.0172 34.8694 48.3454 34.5422 48.3454 34.1412V33.4948C48.3454 33.0938 48.0087 32.7665 47.5963 32.7665H47.5878C47.2176 32.7665 46.9229 32.4965 46.8809 32.1446C46.3337 27.5461 43.4552 24.0439 40.0042 24.0439C36.5448 24.0439 33.6746 27.5461 33.1023 32.1446C33.0602 32.4965 32.7572 32.7747 32.3953 32.7747H32.3784C31.9071 32.7747 31.5199 33.1511 31.5199 33.6094V34.0266C31.5199 34.4849 31.9071 34.8612 32.3784 34.8612C32.7488 34.8612 33.0434 35.1313 33.0854 35.4913C33.338 37.5615 34.0534 38.9525 35.0719 40.1962C35.5348 40.7609 35.8041 41.4564 35.8041 42.1764V43.6493" stroke="white" stroke-width="1.67742" stroke-miterlimit="10"/>
<path d="M32.4626 32.7755H38.6912C39.9538 32.7755 41.1153 31.8836 41.1994 30.6644C41.2247 30.2716 41.191 29.4697 41.3257 29.1015C41.4015 28.8969 41.7381 28.9624 41.8055 29.1751L42.5125 32.0063C42.664 32.4727 43.1101 32.7837 43.6067 32.7837H47.428" stroke="white" stroke-width="1.67742" stroke-miterlimit="10"/>
</g>
<defs>
<clipPath id="clip0_862_6044">
<rect width="26" height="40" fill="white" transform="translate(27 20)"/>
</clipPath>
</defs>
</svg>
