<svg width="38" height="40" viewBox="0 0 38 40" fill="none" xmlns="http://www.w3.org/2000/svg">
<g clip-path="url(#clip0_862_6069)">
<path d="M19.0004 20.3859C22.4922 20.3859 25.3229 17.5774 25.3229 14.1129C25.3229 10.6484 22.4922 7.83984 19.0004 7.83984C15.5085 7.83984 12.6779 10.6484 12.6779 14.1129C12.6779 17.5774 15.5085 20.3859 19.0004 20.3859Z" stroke="white" stroke-width="1.68889" stroke-miterlimit="10"/>
<path d="M27.6977 36.0842H10.3027C9.86491 36.0842 9.5083 35.7303 9.5083 35.296V29.8111C9.5083 24.6078 13.7557 20.3936 19.0002 20.3936C24.2446 20.3936 28.4921 24.6078 28.4921 29.8111V35.3041C28.4921 35.7303 28.1354 36.0842 27.6977 36.0842Z" stroke="white" stroke-width="1.68889" stroke-miterlimit="10"/>
<path d="M21.6829 8.23377C22.5097 5.72457 24.8928 3.91504 27.6974 3.91504C31.191 3.91504 34.0199 6.72181 34.0199 10.1881C34.0199 13.6543 31.191 16.4611 27.6974 16.4611C26.7571 16.4611 25.8655 16.26 25.063 15.8901" stroke="white" stroke-width="1.68889" stroke-miterlimit="10"/>
<path d="M24.6335 16.9673C25.5982 16.6457 26.6275 16.4688 27.6975 16.4688C32.9419 16.4688 37.1894 20.6829 37.1894 25.8862V31.3792C37.1894 31.8135 36.8327 32.1673 36.3951 32.1673H28.6378" stroke="white" stroke-width="1.68889" stroke-miterlimit="10"/>
<path d="M16.3171 8.23377C15.4822 5.72457 13.1072 3.91504 10.3025 3.91504C6.80895 3.91504 3.97192 6.72181 3.97192 10.1881C3.97192 13.6543 6.80085 16.4611 10.2944 16.4611C11.2347 16.4611 12.1264 16.26 12.9289 15.8901" stroke="white" stroke-width="1.68889" stroke-miterlimit="10"/>
<path d="M13.3666 16.9673C12.402 16.6457 11.3725 16.4688 10.3026 16.4688C5.05811 16.4688 0.810669 20.6829 0.810669 25.8862V31.3792C0.810669 31.8135 1.16733 32.1673 1.60504 32.1673H9.36231" stroke="white" stroke-width="1.68889" stroke-miterlimit="10"/>
</g>
<defs>
<clipPath id="clip0_862_6069">
<rect width="38" height="40" fill="white"/>
</clipPath>
</defs>
</svg>
