<svg width="16" height="16" viewBox="0 0 16 16" fill="none" xmlns="http://www.w3.org/2000/svg">
<path d="M3.63269 15.6174V5.49696H0.202386L0.202386 15.6174H3.63269ZM1.91798 4.11435C3.11419 4.11435 3.85877 3.33722 3.85877 2.36606C3.83648 1.373 3.11423 0.617432 1.94068 0.617432C0.767312 0.617432 0 1.37301 0 2.36606C0 3.33726 0.744398 4.11435 1.89559 4.11435H1.91787H1.91798ZM5.53135 15.6174H8.96165V9.96567C8.96165 9.66319 8.98394 9.36103 9.07452 9.14481C9.32251 8.54047 9.88693 7.91455 10.8345 7.91455C12.0758 7.91455 12.5724 8.84263 12.5724 10.2031V15.6174H16.0025V9.81438C16.0025 6.70576 14.3101 5.25936 12.0532 5.25936C10.2027 5.25936 9.39021 6.27369 8.93883 6.96454H8.96173V5.49675H5.53143C5.57644 6.4464 5.53143 15.6172 5.53143 15.6172L5.53135 15.6174Z" fill="#262626"/>
</svg>
