<svg width="32" height="32" viewBox="0 0 32 32" fill="none" xmlns="http://www.w3.org/2000/svg">
<path d="M6 8C6 7.20435 6.31607 6.44129 6.87868 5.87868C7.44129 5.31607 8.20435 5 9 5H25C25.7956 5 26.5587 5.31607 27.1213 5.87868C27.6839 6.44129 28 7.20435 28 8V18C28 18.7956 27.6839 19.5587 27.1213 20.1213C26.5587 20.6839 25.7956 21 25 21H17V13C17 11.6739 16.4732 10.4021 15.5355 9.46447C14.5979 8.52678 13.3261 8 12 8H7C6.655 8 6.32 8.044 6 8.126V8ZM29 25H17V23H29C29.2652 23 29.5196 23.1054 29.7071 23.2929C29.8946 23.4804 30 23.7348 30 24C30 24.2652 29.8946 24.5196 29.7071 24.7071C29.5196 24.8946 29.2652 25 29 25ZM6 10C5.20435 10 4.44129 10.3161 3.87868 10.8787C3.31607 11.4413 3 12.2044 3 13V25C3 25.7956 3.31607 26.5587 3.87868 27.1213C4.44129 27.6839 5.20435 28 6 28H12C12.7956 28 13.5587 27.6839 14.1213 27.1213C14.6839 26.5587 15 25.7956 15 25V13C15 12.2044 14.6839 11.4413 14.1213 10.8787C13.5587 10.3161 12.7956 10 12 10H6ZM9 25C8.73478 25 8.48043 24.8946 8.29289 24.7071C8.10536 24.5196 8 24.2652 8 24C8 23.7348 8.10536 23.4804 8.29289 23.2929C8.48043 23.1054 8.73478 23 9 23C9.26522 23 9.51957 23.1054 9.70711 23.2929C9.89464 23.4804 10 23.7348 10 24C10 24.2652 9.89464 24.5196 9.70711 24.7071C9.51957 24.8946 9.26522 25 9 25Z" fill="#262626"/>
</svg>
