<svg width="248" height="248" viewBox="0 0 248 248" fill="none" xmlns="http://www.w3.org/2000/svg">
<circle cx="4" cy="4" r="4" fill="#D4D4D4"/>
<circle cx="68" cy="4" r="4" fill="#D4D4D4"/>
<circle cx="4" cy="68" r="4" fill="#D4D4D4"/>
<circle cx="68" cy="68" r="4" fill="#D4D4D4"/>
<circle cx="4" cy="36" r="4" fill="#D4D4D4"/>
<circle cx="68" cy="36" r="4" fill="#D4D4D4"/>
<circle cx="4" cy="100" r="4" fill="#D4D4D4"/>
<circle cx="68" cy="100" r="4" fill="#D4D4D4"/>
<circle cx="36" cy="4" r="4" fill="#D4D4D4"/>
<circle cx="100" cy="4" r="4" fill="#D4D4D4"/>
<circle cx="36" cy="68" r="4" fill="#D4D4D4"/>
<circle cx="100" cy="68" r="4" fill="#D4D4D4"/>
<circle cx="36" cy="36" r="4" fill="#D4D4D4"/>
<circle cx="100" cy="36" r="4" fill="#D4D4D4"/>
<circle cx="36" cy="100" r="4" fill="#D4D4D4"/>
<circle cx="100" cy="100" r="4" fill="#D4D4D4"/>
<circle cx="4" cy="20" r="4" fill="#D4D4D4"/>
<circle cx="68" cy="20" r="4" fill="#D4D4D4"/>
<circle cx="4" cy="84" r="4" fill="#D4D4D4"/>
<circle cx="68" cy="84" r="4" fill="#D4D4D4"/>
<circle cx="4" cy="52" r="4" fill="#D4D4D4"/>
<circle cx="68" cy="52" r="4" fill="#D4D4D4"/>
<circle cx="4" cy="116" r="4" fill="#D4D4D4"/>
<circle cx="68" cy="116" r="4" fill="#D4D4D4"/>
<circle cx="36" cy="20" r="4" fill="#D4D4D4"/>
<circle cx="100" cy="20" r="4" fill="#D4D4D4"/>
<circle cx="36" cy="84" r="4" fill="#D4D4D4"/>
<circle cx="100" cy="84" r="4" fill="#D4D4D4"/>
<circle cx="36" cy="52" r="4" fill="#D4D4D4"/>
<circle cx="100" cy="52" r="4" fill="#D4D4D4"/>
<circle cx="36" cy="116" r="4" fill="#D4D4D4"/>
<circle cx="100" cy="116" r="4" fill="#D4D4D4"/>
<circle cx="20" cy="4" r="4" fill="#D4D4D4"/>
<circle cx="84" cy="4" r="4" fill="#D4D4D4"/>
<circle cx="20" cy="68" r="4" fill="#D4D4D4"/>
<circle cx="84" cy="68" r="4" fill="#D4D4D4"/>
<circle cx="20" cy="36" r="4" fill="#D4D4D4"/>
<circle cx="84" cy="36" r="4" fill="#D4D4D4"/>
<circle cx="20" cy="100" r="4" fill="#D4D4D4"/>
<circle cx="84" cy="100" r="4" fill="#D4D4D4"/>
<circle cx="52" cy="4" r="4" fill="#D4D4D4"/>
<circle cx="116" cy="4" r="4" fill="#D4D4D4"/>
<circle cx="52" cy="68" r="4" fill="#D4D4D4"/>
<circle cx="116" cy="68" r="4" fill="#D4D4D4"/>
<circle cx="52" cy="36" r="4" fill="#D4D4D4"/>
<circle cx="116" cy="36" r="4" fill="#D4D4D4"/>
<circle cx="52" cy="100" r="4" fill="#D4D4D4"/>
<circle cx="116" cy="100" r="4" fill="#D4D4D4"/>
<circle cx="20" cy="20" r="4" fill="#D4D4D4"/>
<circle cx="84" cy="20" r="4" fill="#D4D4D4"/>
<circle cx="20" cy="84" r="4" fill="#D4D4D4"/>
<circle cx="84" cy="84" r="4" fill="#D4D4D4"/>
<circle cx="20" cy="52" r="4" fill="#D4D4D4"/>
<circle cx="84" cy="52" r="4" fill="#D4D4D4"/>
<circle cx="20" cy="116" r="4" fill="#D4D4D4"/>
<circle cx="84" cy="116" r="4" fill="#D4D4D4"/>
<circle cx="52" cy="20" r="4" fill="#D4D4D4"/>
<circle cx="116" cy="20" r="4" fill="#D4D4D4"/>
<circle cx="52" cy="84" r="4" fill="#D4D4D4"/>
<circle cx="116" cy="84" r="4" fill="#D4D4D4"/>
<circle cx="52" cy="52" r="4" fill="#D4D4D4"/>
<circle cx="116" cy="52" r="4" fill="#D4D4D4"/>
<circle cx="52" cy="116" r="4" fill="#D4D4D4"/>
<circle cx="116" cy="116" r="4" fill="#D4D4D4"/>
<circle cx="4" cy="132" r="4" fill="#D4D4D4"/>
<circle cx="68" cy="132" r="4" fill="#D4D4D4"/>
<circle cx="4" cy="196" r="4" fill="#D4D4D4"/>
<circle cx="68" cy="196" r="4" fill="#D4D4D4"/>
<circle cx="4" cy="164" r="4" fill="#D4D4D4"/>
<circle cx="68" cy="164" r="4" fill="#D4D4D4"/>
<circle cx="4" cy="228" r="4" fill="#D4D4D4"/>
<circle cx="68" cy="228" r="4" fill="#D4D4D4"/>
<circle cx="36" cy="132" r="4" fill="#D4D4D4"/>
<circle cx="100" cy="132" r="4" fill="#D4D4D4"/>
<circle cx="36" cy="196" r="4" fill="#D4D4D4"/>
<circle cx="100" cy="196" r="4" fill="#D4D4D4"/>
<circle cx="36" cy="164" r="4" fill="#D4D4D4"/>
<circle cx="100" cy="164" r="4" fill="#D4D4D4"/>
<circle cx="36" cy="228" r="4" fill="#D4D4D4"/>
<circle cx="100" cy="228" r="4" fill="#D4D4D4"/>
<circle cx="4" cy="148" r="4" fill="#D4D4D4"/>
<circle cx="68" cy="148" r="4" fill="#D4D4D4"/>
<circle cx="4" cy="212" r="4" fill="#D4D4D4"/>
<circle cx="68" cy="212" r="4" fill="#D4D4D4"/>
<circle cx="4" cy="180" r="4" fill="#D4D4D4"/>
<circle cx="68" cy="180" r="4" fill="#D4D4D4"/>
<circle cx="4" cy="244" r="4" fill="#D4D4D4"/>
<circle cx="68" cy="244" r="4" fill="#D4D4D4"/>
<circle cx="36" cy="148" r="4" fill="#D4D4D4"/>
<circle cx="100" cy="148" r="4" fill="#D4D4D4"/>
<circle cx="36" cy="212" r="4" fill="#D4D4D4"/>
<circle cx="100" cy="212" r="4" fill="#D4D4D4"/>
<circle cx="36" cy="180" r="4" fill="#D4D4D4"/>
<circle cx="100" cy="180" r="4" fill="#D4D4D4"/>
<circle cx="36" cy="244" r="4" fill="#D4D4D4"/>
<circle cx="100" cy="244" r="4" fill="#D4D4D4"/>
<circle cx="20" cy="132" r="4" fill="#D4D4D4"/>
<circle cx="84" cy="132" r="4" fill="#D4D4D4"/>
<circle cx="20" cy="196" r="4" fill="#D4D4D4"/>
<circle cx="84" cy="196" r="4" fill="#D4D4D4"/>
<circle cx="20" cy="164" r="4" fill="#D4D4D4"/>
<circle cx="84" cy="164" r="4" fill="#D4D4D4"/>
<circle cx="20" cy="228" r="4" fill="#D4D4D4"/>
<circle cx="84" cy="228" r="4" fill="#D4D4D4"/>
<circle cx="52" cy="132" r="4" fill="#D4D4D4"/>
<circle cx="116" cy="132" r="4" fill="#D4D4D4"/>
<circle cx="52" cy="196" r="4" fill="#D4D4D4"/>
<circle cx="116" cy="196" r="4" fill="#D4D4D4"/>
<circle cx="52" cy="164" r="4" fill="#D4D4D4"/>
<circle cx="116" cy="164" r="4" fill="#D4D4D4"/>
<circle cx="52" cy="228" r="4" fill="#D4D4D4"/>
<circle cx="116" cy="228" r="4" fill="#D4D4D4"/>
<circle cx="20" cy="148" r="4" fill="#D4D4D4"/>
<circle cx="84" cy="148" r="4" fill="#D4D4D4"/>
<circle cx="20" cy="212" r="4" fill="#D4D4D4"/>
<circle cx="84" cy="212" r="4" fill="#D4D4D4"/>
<circle cx="20" cy="180" r="4" fill="#D4D4D4"/>
<circle cx="84" cy="180" r="4" fill="#D4D4D4"/>
<circle cx="20" cy="244" r="4" fill="#D4D4D4"/>
<circle cx="84" cy="244" r="4" fill="#D4D4D4"/>
<circle cx="52" cy="148" r="4" fill="#D4D4D4"/>
<circle cx="116" cy="148" r="4" fill="#D4D4D4"/>
<circle cx="52" cy="212" r="4" fill="#D4D4D4"/>
<circle cx="116" cy="212" r="4" fill="#D4D4D4"/>
<circle cx="52" cy="180" r="4" fill="#D4D4D4"/>
<circle cx="116" cy="180" r="4" fill="#D4D4D4"/>
<circle cx="52" cy="244" r="4" fill="#D4D4D4"/>
<circle cx="116" cy="244" r="4" fill="#D4D4D4"/>
<circle cx="132" cy="4" r="4" fill="#D4D4D4"/>
<circle cx="196" cy="4" r="4" fill="#D4D4D4"/>
<circle cx="132" cy="68" r="4" fill="#D4D4D4"/>
<circle cx="196" cy="68" r="4" fill="#D4D4D4"/>
<circle cx="132" cy="36" r="4" fill="#D4D4D4"/>
<circle cx="196" cy="36" r="4" fill="#D4D4D4"/>
<circle cx="132" cy="100" r="4" fill="#D4D4D4"/>
<circle cx="196" cy="100" r="4" fill="#D4D4D4"/>
<circle cx="164" cy="4" r="4" fill="#D4D4D4"/>
<circle cx="228" cy="4" r="4" fill="#D4D4D4"/>
<circle cx="164" cy="68" r="4" fill="#D4D4D4"/>
<circle cx="228" cy="68" r="4" fill="#D4D4D4"/>
<circle cx="164" cy="36" r="4" fill="#D4D4D4"/>
<circle cx="228" cy="36" r="4" fill="#D4D4D4"/>
<circle cx="164" cy="100" r="4" fill="#D4D4D4"/>
<circle cx="228" cy="100" r="4" fill="#D4D4D4"/>
<circle cx="132" cy="20" r="4" fill="#D4D4D4"/>
<circle cx="196" cy="20" r="4" fill="#D4D4D4"/>
<circle cx="132" cy="84" r="4" fill="#D4D4D4"/>
<circle cx="196" cy="84" r="4" fill="#D4D4D4"/>
<circle cx="132" cy="52" r="4" fill="#D4D4D4"/>
<circle cx="196" cy="52" r="4" fill="#D4D4D4"/>
<circle cx="132" cy="116" r="4" fill="#D4D4D4"/>
<circle cx="196" cy="116" r="4" fill="#D4D4D4"/>
<circle cx="164" cy="20" r="4" fill="#D4D4D4"/>
<circle cx="228" cy="20" r="4" fill="#D4D4D4"/>
<circle cx="164" cy="84" r="4" fill="#D4D4D4"/>
<circle cx="228" cy="84" r="4" fill="#D4D4D4"/>
<circle cx="164" cy="52" r="4" fill="#D4D4D4"/>
<circle cx="228" cy="52" r="4" fill="#D4D4D4"/>
<circle cx="164" cy="116" r="4" fill="#D4D4D4"/>
<circle cx="228" cy="116" r="4" fill="#D4D4D4"/>
<circle cx="148" cy="4" r="4" fill="#D4D4D4"/>
<circle cx="212" cy="4" r="4" fill="#D4D4D4"/>
<circle cx="148" cy="68" r="4" fill="#D4D4D4"/>
<circle cx="212" cy="68" r="4" fill="#D4D4D4"/>
<circle cx="148" cy="36" r="4" fill="#D4D4D4"/>
<circle cx="212" cy="36" r="4" fill="#D4D4D4"/>
<circle cx="148" cy="100" r="4" fill="#D4D4D4"/>
<circle cx="212" cy="100" r="4" fill="#D4D4D4"/>
<circle cx="180" cy="4" r="4" fill="#D4D4D4"/>
<circle cx="244" cy="4" r="4" fill="#D4D4D4"/>
<circle cx="180" cy="68" r="4" fill="#D4D4D4"/>
<circle cx="244" cy="68" r="4" fill="#D4D4D4"/>
<circle cx="180" cy="36" r="4" fill="#D4D4D4"/>
<circle cx="244" cy="36" r="4" fill="#D4D4D4"/>
<circle cx="180" cy="100" r="4" fill="#D4D4D4"/>
<circle cx="244" cy="100" r="4" fill="#D4D4D4"/>
<circle cx="148" cy="20" r="4" fill="#D4D4D4"/>
<circle cx="212" cy="20" r="4" fill="#D4D4D4"/>
<circle cx="148" cy="84" r="4" fill="#D4D4D4"/>
<circle cx="212" cy="84" r="4" fill="#D4D4D4"/>
<circle cx="148" cy="52" r="4" fill="#D4D4D4"/>
<circle cx="212" cy="52" r="4" fill="#D4D4D4"/>
<circle cx="148" cy="116" r="4" fill="#D4D4D4"/>
<circle cx="212" cy="116" r="4" fill="#D4D4D4"/>
<circle cx="180" cy="20" r="4" fill="#D4D4D4"/>
<circle cx="244" cy="20" r="4" fill="#D4D4D4"/>
<circle cx="180" cy="84" r="4" fill="#D4D4D4"/>
<circle cx="244" cy="84" r="4" fill="#D4D4D4"/>
<circle cx="180" cy="52" r="4" fill="#D4D4D4"/>
<circle cx="244" cy="52" r="4" fill="#D4D4D4"/>
<circle cx="180" cy="116" r="4" fill="#D4D4D4"/>
<circle cx="244" cy="116" r="4" fill="#D4D4D4"/>
<circle cx="132" cy="132" r="4" fill="#D4D4D4"/>
<circle cx="196" cy="132" r="4" fill="#D4D4D4"/>
<circle cx="132" cy="196" r="4" fill="#D4D4D4"/>
<circle cx="196" cy="196" r="4" fill="#D4D4D4"/>
<circle cx="132" cy="164" r="4" fill="#D4D4D4"/>
<circle cx="196" cy="164" r="4" fill="#D4D4D4"/>
<circle cx="132" cy="228" r="4" fill="#D4D4D4"/>
<circle cx="196" cy="228" r="4" fill="#D4D4D4"/>
<circle cx="164" cy="132" r="4" fill="#D4D4D4"/>
<circle cx="228" cy="132" r="4" fill="#D4D4D4"/>
<circle cx="164" cy="196" r="4" fill="#D4D4D4"/>
<circle cx="228" cy="196" r="4" fill="#D4D4D4"/>
<circle cx="164" cy="164" r="4" fill="#D4D4D4"/>
<circle cx="228" cy="164" r="4" fill="#D4D4D4"/>
<circle cx="164" cy="228" r="4" fill="#D4D4D4"/>
<circle cx="228" cy="228" r="4" fill="#D4D4D4"/>
<circle cx="132" cy="148" r="4" fill="#D4D4D4"/>
<circle cx="196" cy="148" r="4" fill="#D4D4D4"/>
<circle cx="132" cy="212" r="4" fill="#D4D4D4"/>
<circle cx="196" cy="212" r="4" fill="#D4D4D4"/>
<circle cx="132" cy="180" r="4" fill="#D4D4D4"/>
<circle cx="196" cy="180" r="4" fill="#D4D4D4"/>
<circle cx="132" cy="244" r="4" fill="#D4D4D4"/>
<circle cx="196" cy="244" r="4" fill="#D4D4D4"/>
<circle cx="164" cy="148" r="4" fill="#D4D4D4"/>
<circle cx="228" cy="148" r="4" fill="#D4D4D4"/>
<circle cx="164" cy="212" r="4" fill="#D4D4D4"/>
<circle cx="228" cy="212" r="4" fill="#D4D4D4"/>
<circle cx="164" cy="180" r="4" fill="#D4D4D4"/>
<circle cx="228" cy="180" r="4" fill="#D4D4D4"/>
<circle cx="164" cy="244" r="4" fill="#D4D4D4"/>
<circle cx="228" cy="244" r="4" fill="#D4D4D4"/>
<circle cx="148" cy="132" r="4" fill="#D4D4D4"/>
<circle cx="212" cy="132" r="4" fill="#D4D4D4"/>
<circle cx="148" cy="196" r="4" fill="#D4D4D4"/>
<circle cx="212" cy="196" r="4" fill="#D4D4D4"/>
<circle cx="148" cy="164" r="4" fill="#D4D4D4"/>
<circle cx="212" cy="164" r="4" fill="#D4D4D4"/>
<circle cx="148" cy="228" r="4" fill="#D4D4D4"/>
<circle cx="212" cy="228" r="4" fill="#D4D4D4"/>
<circle cx="180" cy="132" r="4" fill="#D4D4D4"/>
<circle cx="244" cy="132" r="4" fill="#D4D4D4"/>
<circle cx="180" cy="196" r="4" fill="#D4D4D4"/>
<circle cx="244" cy="196" r="4" fill="#D4D4D4"/>
<circle cx="180" cy="164" r="4" fill="#D4D4D4"/>
<circle cx="244" cy="164" r="4" fill="#D4D4D4"/>
<circle cx="180" cy="228" r="4" fill="#D4D4D4"/>
<circle cx="244" cy="228" r="4" fill="#D4D4D4"/>
<circle cx="148" cy="148" r="4" fill="#D4D4D4"/>
<circle cx="212" cy="148" r="4" fill="#D4D4D4"/>
<circle cx="148" cy="212" r="4" fill="#D4D4D4"/>
<circle cx="212" cy="212" r="4" fill="#D4D4D4"/>
<circle cx="148" cy="180" r="4" fill="#D4D4D4"/>
<circle cx="212" cy="180" r="4" fill="#D4D4D4"/>
<circle cx="148" cy="244" r="4" fill="#D4D4D4"/>
<circle cx="212" cy="244" r="4" fill="#D4D4D4"/>
<circle cx="180" cy="148" r="4" fill="#D4D4D4"/>
<circle cx="244" cy="148" r="4" fill="#D4D4D4"/>
<circle cx="180" cy="212" r="4" fill="#D4D4D4"/>
<circle cx="244" cy="212" r="4" fill="#D4D4D4"/>
<circle cx="180" cy="180" r="4" fill="#D4D4D4"/>
<circle cx="244" cy="180" r="4" fill="#D4D4D4"/>
<circle cx="180" cy="244" r="4" fill="#D4D4D4"/>
<circle cx="244" cy="244" r="4" fill="#D4D4D4"/>
</svg>
