<svg width="16" height="12" viewBox="0 0 16 12" fill="none" xmlns="http://www.w3.org/2000/svg">
<path fill-rule="evenodd" clip-rule="evenodd" d="M3.99749 1.76683L2.15018 1.75698C1.98014 1.75698 1.8423 1.61913 1.8423 1.44909V1.305C1.8423 0.794882 2.25583 0.381348 2.76595 0.381348H3.38172C3.89184 0.381348 4.30537 0.794882 4.30537 1.305V1.45894C4.30537 1.62898 4.16753 1.76683 3.99749 1.76683ZM13.8153 2.3826H13.005C12.8723 2.37789 12.7554 2.29384 12.7088 2.16954L12.7081 2.16816C12.3278 1.36562 11.9343 0.53529 11.0788 0.53529H7.99999C7.3405 0.53529 6.99259 1.01436 6.36266 1.88444C6.32105 1.94155 6.28436 1.99398 6.25102 2.04162C6.09493 2.26469 6.01242 2.3826 5.84295 2.3826H2.14833C0.878001 2.3826 0.610757 3.12706 0.610757 3.75145V10.1481C0.581821 10.565 0.7423 10.9728 1.04763 11.2582C1.35296 11.5435 1.77063 11.6761 2.18466 11.6191H13.8153C14.2293 11.6761 14.647 11.5435 14.9523 11.2582C15.2577 10.9728 15.4182 10.565 15.3892 10.1481V3.75145C15.3892 3.12706 15.1164 2.3826 13.8153 2.3826ZM9.69335 9.00212C10.9687 9.00212 12.0025 7.96828 12.0025 6.69298C12.0025 5.41768 10.9687 4.38385 9.69335 4.38385C8.41805 4.38385 7.38422 5.41768 7.38422 6.69298C7.38422 7.96828 8.41805 9.00212 9.69335 9.00212ZM9.69335 10.2337C11.6488 10.2337 13.234 8.64844 13.234 6.69298C13.232 4.73837 11.648 3.15435 9.69335 3.15231C7.73789 3.15231 6.15268 4.73752 6.15268 6.69298C6.15268 8.64844 7.73789 10.2337 9.69335 10.2337ZM3.6896 4.69173C3.6896 5.11683 3.34499 5.46144 2.91989 5.46144C2.49479 5.46144 2.15018 5.11683 2.15018 4.69173C2.15018 4.26663 2.49479 3.92202 2.91989 3.92202C3.34499 3.92202 3.6896 4.26663 3.6896 4.69173Z" fill="#F9B400"/>
</svg>
