<svg width="16" height="17" viewBox="0 0 16 17" fill="none" xmlns="http://www.w3.org/2000/svg">
<path d="M8.00331 4.57597C5.73189 4.57597 3.89975 6.37949 3.89975 8.61542C3.89975 10.8514 5.73189 12.6549 8.00331 12.6549C10.2747 12.6549 12.1069 10.8514 12.1069 8.61542C12.1069 6.37949 10.2747 4.57597 8.00331 4.57597ZM8.00331 11.2416C6.53546 11.2416 5.33546 10.0639 5.33546 8.61542C5.33546 7.16699 6.53189 5.98925 8.00331 5.98925C9.47474 5.98925 10.6712 7.16699 10.6712 8.61542C10.6712 10.0639 9.47117 11.2416 8.00331 11.2416ZM13.2319 4.41074C13.2319 4.93457 12.8033 5.35293 12.2747 5.35293C11.7426 5.35293 11.3176 4.93105 11.3176 4.41074C11.3176 3.89043 11.7462 3.46855 12.2747 3.46855C12.8033 3.46855 13.2319 3.89043 13.2319 4.41074ZM15.9497 5.36699C15.889 4.10488 15.5962 2.98691 14.6569 2.06582C13.7212 1.14473 12.5855 0.856445 11.3033 0.793164C9.98188 0.719336 6.02117 0.719336 4.69975 0.793164C3.42118 0.85293 2.28546 1.14121 1.34618 2.0623C0.406892 2.9834 0.117606 4.10136 0.0533203 5.36347C-0.0216797 6.66425 -0.0216797 10.5631 0.0533203 11.8639C0.114035 13.126 0.406892 14.2439 1.34618 15.165C2.28546 16.0861 3.4176 16.3744 4.69975 16.4377C6.02117 16.5115 9.98188 16.5115 11.3033 16.4377C12.5855 16.3779 13.7212 16.0896 14.6569 15.165C15.5926 14.2439 15.8855 13.126 15.9497 11.8639C16.0247 10.5631 16.0247 6.66777 15.9497 5.36699ZM14.2426 13.2596C13.964 13.9486 13.4247 14.4795 12.7212 14.7572C11.6676 15.1685 9.1676 15.0736 8.00331 15.0736C6.83903 15.0736 4.33546 15.165 3.28546 14.7572C2.58546 14.483 2.04618 13.9521 1.76403 13.2596C1.34618 12.2224 1.44261 9.76151 1.44261 8.61542C1.44261 7.46933 1.34975 5.00488 1.76403 3.97129C2.0426 3.28222 2.58189 2.75137 3.28546 2.47363C4.33903 2.0623 6.83903 2.15723 8.00331 2.15723C9.1676 2.15723 11.6712 2.06582 12.7212 2.47363C13.4212 2.74785 13.9605 3.27871 14.2426 3.97129C14.6605 5.00839 14.564 7.46933 14.564 8.61542C14.564 9.76151 14.6605 12.226 14.2426 13.2596Z" fill="#262626"/>
</svg>
